<?xml version="1.0" encoding="utf-8"?>
<!-- Generator: Adobe Illustrator 19.1.0, SVG Export Plug-In . SVG Version: 6.00 Build 0)  -->
<svg version="1.1" id="Layer_1" xmlns="http://www.w3.org/2000/svg" xmlns:xlink="http://www.w3.org/1999/xlink" x="0px" y="0px"
	 viewBox="0 0 193 184" style="enable-background:new 0 0 193 184;" xml:space="preserve">
<style type="text/css">
	.st0{fill:#302D33;}
	.st1{fill:#C0BEC2;}
	.st2{fill:#E6E7E8;}
	.st3{fill:#BCBEC0;}
	.st4{fill:#C3922E;}
	.st5{fill:#7C51A1;}
	.st6{fill:#A7A9AC;}
	.st7{fill:#D6947C;}
	.st8{fill:#FBBEA7;}
	.st9{fill:#423332;}
	.st10{fill:#FFFFFF;}
	.st11{fill:#423E38;}
	.st12{fill:#E9E9EA;}
	.st13{fill:#F15B33;}
	.st14{fill:#92A645;}
	.st15{fill:#EE4488;}
	.st16{fill:#92D6E3;}
	.st17{fill:none;stroke:#EAAC98;stroke-miterlimit:10;}
</style>
<g>
	<circle class="st0" cx="94" cy="96" r="53.2"/>
	<path class="st1" d="M154.7,96c0-1.9-0.1-3.7-0.3-5.6l12.8-6.6c-0.5-2.9-1.1-5.7-1.9-8.5l-14.4-0.5c-1.3-3.5-2.9-6.9-4.9-10.1
		l8.6-11.5c-1.7-2.4-3.5-4.6-5.4-6.8L136,52.2c-2.7-2.6-5.6-4.9-8.7-7l2.8-14.1c-2.5-1.4-5.1-2.7-7.8-3.8l-9.3,11
		c-3.5-1.1-7.2-2-10.9-2.5l-3.7-13.9c-1.4-0.1-2.9-0.1-4.4-0.1c-1.5,0-2.9,0-4.4,0.1L86,35.8c-3.8,0.5-7.4,1.3-10.9,2.5l-9.3-11
		c-2.7,1.1-5.3,2.4-7.8,3.8l2.8,14.1c-3.1,2.1-6,4.4-8.7,7l-13.2-5.8c-1.9,2.2-3.8,4.4-5.4,6.8l8.6,11.5c-1.9,3.2-3.6,6.6-4.9,10.1
		l-14.4,0.5c-0.8,2.8-1.4,5.6-1.9,8.5l12.8,6.6c-0.2,1.8-0.3,3.7-0.3,5.6c0,1.9,0.1,3.7,0.3,5.6l-12.8,6.6c0.5,2.9,1.1,5.7,1.9,8.5
		l14.4,0.5c1.3,3.5,2.9,6.9,4.9,10.1l-8.6,11.5c1.7,2.4,3.5,4.6,5.4,6.8l13.2-5.8c2.7,2.6,5.6,4.9,8.7,7l-2.8,14.1
		c2.5,1.4,5.1,2.7,7.8,3.8l9.3-11c3.5,1.2,7.2,2,10.9,2.5l3.7,13.9c1.4,0.1,2.9,0.1,4.4,0.1c1.5,0,2.9,0,4.4-0.1l3.7-13.9
		c3.8-0.5,7.4-1.3,10.9-2.5l9.3,11c2.7-1.1,5.3-2.4,7.8-3.8l-2.8-14.1c3.1-2.1,6-4.4,8.7-7l13.2,5.8c1.9-2.2,3.8-4.4,5.4-6.8
		l-8.6-11.5c1.9-3.2,3.6-6.6,4.9-10.1l14.4-0.5c0.8-2.8,1.4-5.6,1.9-8.5l-12.8-6.7C154.6,99.7,154.7,97.9,154.7,96z M94,139.7
		c-24.2,0-43.7-19.6-43.7-43.7c0-24.2,19.6-43.7,43.7-43.7s43.7,19.6,43.7,43.7C137.7,120.1,118.1,139.7,94,139.7z"/>
	<path class="st2" d="M165.3,75.3l-0.3,0c-1.5,1.4-3.1,2.8-4.6,4.2c-4.9,4.7-9.9,9.4-15.9,12.7c-2.2,1.2-4.5,2.2-6.8,3.1
		c0,0.2,0,0.5,0,0.7c0,24.2-19.6,43.7-43.7,43.7c-17.5,0-32.6-10.3-39.6-25.1c-0.4,0-0.7,0-1.1,0c-7.7-0.2-15.4-0.6-23-1.7
		c-3-0.4-6-0.9-9-1.6c0.4,1.8,0.8,3.7,1.4,5.5l14.4,0.5c1.3,3.5,2.9,6.9,4.9,10.1l-8.6,11.5c1.7,2.4,3.5,4.6,5.4,6.8l13.2-5.8
		c2.7,2.6,5.6,4.9,8.7,7l-2.8,14.1c2.5,1.4,5.1,2.7,7.8,3.8l9.3-11c3.5,1.2,7.2,2,10.9,2.5l3.7,13.9c1.4,0.1,2.9,0.1,4.4,0.1
		c1.5,0,2.9,0,4.4-0.1l3.7-13.9c3.8-0.5,7.4-1.3,10.9-2.5l9.3,11c2.7-1.1,5.3-2.4,7.8-3.8l-2.8-14.1c3.1-2.1,6-4.4,8.7-7l13.2,5.8
		c1.9-2.2,3.8-4.4,5.4-6.8l-8.6-11.5c1.9-3.2,3.6-6.6,4.9-10.1l14.4-0.5c0.8-2.8,1.4-5.6,1.9-8.5l-12.8-6.7c0.2-1.8,0.3-3.7,0.3-5.6
		c0-1.9-0.1-3.7-0.3-5.6l12.8-6.6C166.7,80.9,166.1,78,165.3,75.3z"/>
	<path class="st3" d="M94,52.2c24.2,0,43.7,19.6,43.7,43.7c0,24.2-19.6,43.7-43.7,43.7S50.2,120.1,50.2,96
		C50.2,71.8,69.8,52.2,94,52.2 M94,47.1C67,47.1,45.1,69,45.1,96c0,26.9,21.9,48.9,48.9,48.9c26.9,0,48.9-21.9,48.9-48.9
		C142.8,69,120.9,47.1,94,47.1L94,47.1z"/>
	<g>
		<path class="st4" d="M116.8,73.6c-1.1-4.6-3.6-8.6-4.5-13.2c-1.5-8.4-12.8-8.3-19.3-8.7c-2.9-0.2-5.9,0-8.8,0.2
			c-2,0.1-3.8,0.2-5.6,0.9C78,53,75,54,74.1,55.1c-0.2,0-0.3,0.1-0.3,0.3c-0.3,3.4-0.6,6.9-1.3,10.2c-0.6,3-1.8,5.9-2.2,9
			c-0.6,5,4,8.3,8.5,9c2.7,0.5,5.4,0.3,8.1,0.4c3.7,0.2,7.4,0.5,11.1,0.6c4.8,0.1,10.3,0.6,14.8-1.4
			C116.7,81.6,117.7,77.6,116.8,73.6z"/>
		<path class="st5" d="M135.3,110.4c-6,17.1-22.2,29.3-41.3,29.3c-19.1,0-35.4-12.3-41.3-29.3c0.7-11.7,1.7-14.4,3.1-16.5
			c4.9-7.1,17.3-14.7,24.7-15C87.9,78.6,94,78,94,78s6.1,0.7,13.5,0.9c7.4,0.3,19.8,7.9,24.7,15C133.6,95.9,134.6,98.6,135.3,110.4z
			"/>
		<path class="st6" d="M80.2,78.9c-0.7,0.3-1.3,0.9-0.6,1.9c1.1,1.7,2.9,2.8,4.7,3.5c3.5,1.3,7.3,2,11,1.9c3.9-0.2,7.7-1.2,11.1-3.3
			c0.7-0.5,2.1-1.3,2-2.4c-0.1-0.7-0.6-1.2-1-1.7c0,0,0,0-0.1,0C100,78.6,94,78,94,78s-6.1,0.7-13.5,0.9
			C80.4,78.9,80.3,78.9,80.2,78.9z"/>
		<path class="st7" d="M102.3,68.2H85.6l-1.7,12.3c0,0,4.2,2.4,10.1,2.4c5.8,0,10.1-2.4,10.1-2.4L102.3,68.2z"/>
		<path class="st8" d="M94,17.3c-14.9,0-22,13.3-22,24.2c0,25,19.5,32.9,22,32.9c2.5,0,22-6.7,22-32.9C116,30.6,108.9,17.3,94,17.3z
			"/>
		<path class="st8" d="M73.9,46.1c-1-2.9-2.8-4-4.6-2.9c-1.9,1.1-0.9,6.5,0.4,9.6c1.3,3.1,1.8,6.3,4.7,4.4
			C77.4,55.4,73.9,46.1,73.9,46.1z"/>
		<g>
			<path class="st0" d="M87.3,40.5c1.7,0,3.1,1.4,3.1,3.1v4.5c0,1.7-1.4,3.1-3.1,3.1h-9.7c-1.7,0-3.1-1.4-3.1-3.1v-4.5
				c0-1.7,1.4-3.1,3.1-3.1H87.3 M87.3,38.4h-9.7c-2.9,0-5.2,2.3-5.2,5.2v4.5c0,2.9,2.3,5.2,5.2,5.2h9.7c2.9,0,5.2-2.3,5.2-5.2v-4.5
				C92.5,40.7,90.1,38.4,87.3,38.4L87.3,38.4z"/>
		</g>
		<path class="st0" d="M94,41.1h-2.5c-0.5,0-1,0.4-1,1v1.5c0,0.5,0.4,1,1,1H94V41.1z"/>
		<path class="st4" d="M78,21.6c-0.7-1.8-1.1-3.6-1.6-5.4c-0.1-0.4-0.2-0.8-0.4-1.2c-1.2,0.9-2.5,1.7-3.7,2.5
			c-0.9,0.8-1.8,1.7-2.5,2.7c-0.1,0.2-0.1,0.4-0.2,0.6c-0.3,0.9-0.7,1.7-0.9,2.6c-0.3,1.2-0.5,2.4-0.6,3.6c-0.3,2.5-0.3,5.2,0.1,7.8
			c0.2,1.2,0.4,2.4,0.9,3.4c0.6,1.1,1.6,2,1.7,3.2c0,0.1,0,0.2,0.1,0.2c0,0.6,0.1,1.2,0.1,1.8c0.1,3.5,0.2,7,1.1,10.4
			c0.1,0.3,0.5,0.3,0.6,0c0.6-1.7,0-3.3-0.2-5c-0.2-1.7-0.3-3.3-0.3-5c0-0.9,0.1-1.8,0.2-2.7c0.5-3.2,1.5-10.8,6.9-10.8v-5.3
			C78.8,23.8,78.4,22.7,78,21.6z"/>
		<path class="st9" d="M71.9,49.2"/>
		<path class="st8" d="M114,46.1c1-2.9,2.8-4,4.6-2.9c1.9,1.1,0.9,6.5-0.4,9.6c-1.3,3.1-1.8,6.3-4.7,4.4
			C110.6,55.4,114,46.1,114,46.1z"/>
		<g>
			<path class="st0" d="M110.3,40.5c1.7,0,3.1,1.4,3.1,3.1v4.5c0,1.7-1.4,3.1-3.1,3.1h-9.7c-1.7,0-3.1-1.4-3.1-3.1v-4.5
				c0-1.7,1.4-3.1,3.1-3.1H110.3 M110.3,38.4h-9.7c-2.9,0-5.2,2.3-5.2,5.2v4.5c0,2.9,2.3,5.2,5.2,5.2h9.7c2.9,0,5.2-2.3,5.2-5.2
				v-4.5C115.5,40.7,113.2,38.4,110.3,38.4L110.3,38.4z"/>
		</g>
		<path class="st0" d="M94,41.1h2.5c0.5,0,1,0.4,1,1v1.5c0,0.5-0.4,1-1,1H94V41.1z"/>
		<path class="st4" d="M110,21.6c0.7-1.8,1.1-3.6,1.6-5.4c0.1-0.4,0.3-0.8,0.4-1.2c1.2,0.9,2.5,1.7,3.7,2.5c0.9,0.8,1.8,1.7,2.5,2.7
			c0.1,0.2,0.1,0.4,0.2,0.6c0.3,0.9,0.7,1.7,0.9,2.6c0.3,1.2,0.5,2.4,0.6,3.6c0.3,2.5,0.3,5.2-0.1,7.8c-0.2,1.2-0.4,2.4-0.9,3.4
			c-0.6,1.1-1.6,2-1.7,3.2c0,0.1,0,0.2-0.1,0.2c0,0.6-0.1,1.2-0.1,1.8c-0.1,3.5-0.2,7-1.1,10.4c-0.1,0.3-0.5,0.3-0.6,0
			c-0.6-1.7,0.1-3.3,0.2-5c0.2-1.7,0.3-3.3,0.3-5c0-0.9-0.1-1.8-0.2-2.7c-0.5-3.2-1.9-6.4-3.5-9.2c-1.5,0.4-1.2-2.8-3.4-2.8v-4.1
			C109.2,23.8,109.6,22.7,110,21.6z"/>
		<path class="st9" d="M116.1,49.2"/>
		<path class="st0" d="M73.7,41.1h-2.5c-0.5,0-1,0.4-1,1v1.5c0,0.5,0.4,1,1,1h2.5V41.1z"/>
		<path class="st0" d="M114.3,41.1h2.5c0.5,0,1,0.4,1,1v1.5c0,0.5-0.4,1-1,1h-2.5V41.1z"/>
		<path class="st4" d="M109.4,10.7c-5.1-4.8-14.3-5.2-20.9-5c-7.3,0.2-14.9,2.9-17.4,10.4c-1.8,5.4-0.6,14,6.3,14.7
			c0.2,0,0.3,0,0.4-0.1c4.5,1,9,1.6,13.8,0.3c1.2-0.3,2.3-0.9,3.3-1.5c0.3-0.2-0.4,2.7-0.5,3.1c-0.9,2.9-5.5,7-5.3,7
			c4.7,0.2,6.4-3.8,8.4-7.2c0.2-0.4,0.5-0.8,0.7-1.2c0.4-0.6,0.6-1.3,0.9-0.5c0.4,1.3,0.4,2.7,0.4,4.1c0,2.9-2.8,9.4-2.5,9.2
			c3.2-1.9,4.9-4.9,6.2-8.3c0.2-0.5,1.7-5.2,1.2-5.2c0.2,0,4.6,5.8,4.6,5.5c0.1-2.6,0-5.3,0.7-7.8c0.7-2.7,2.4-5,3.1-7.8
			C113.6,16.8,111.9,13,109.4,10.7z"/>
		<g>
			<circle class="st10" cx="82.7" cy="45.9" r="3.8"/>
			<circle class="st11" cx="82.7" cy="45.9" r="2.4"/>
		</g>
		<g>
			<circle class="st10" cx="105.8" cy="45.9" r="3.8"/>
			<circle class="st11" cx="105.8" cy="45.9" r="2.4"/>
		</g>
	</g>
	<g>
		<path class="st12" d="M84.6,117c0.4,0.2,0.7,0.5,0.9,0.9c0.2,0.4,0.2,0.9,0,1.3c-0.2,0.4-0.5,0.6-1,0.8c-0.5,0.1-0.9,0.1-1.3-0.1
			l-13.5-7.2l-0.1-0.1c-0.3-0.3-0.5-0.7-0.5-1.2c0-0.5,0.2-0.9,0.5-1.2l13.5-7.2c0.4-0.2,0.8-0.3,1.2-0.2c0.4,0.1,0.7,0.3,1,0.6
			c0.2,0.4,0.3,0.8,0.2,1.2c-0.1,0.4-0.4,0.8-0.7,1l-11.6,5.7L84.6,117z"/>
		<path class="st12" d="M114.5,111.5l-11.6-5.7c-0.4-0.2-0.6-0.5-0.7-1c-0.1-0.4,0-0.9,0.2-1.2c0.2-0.3,0.5-0.5,1-0.6
			c0.4-0.1,0.8,0,1.2,0.2l13.5,7.2c0.3,0.3,0.5,0.7,0.5,1.2c0,0.5-0.2,0.9-0.5,1.2l-0.1,0.1l-13.5,7.2c-0.4,0.2-0.8,0.3-1.3,0.1
			c-0.5-0.1-0.8-0.4-1-0.8c-0.2-0.5-0.2-0.9,0-1.3c0.2-0.4,0.5-0.7,0.9-0.9L114.5,111.5z"/>
		<path class="st12" d="M97.2,95c0.1-0.4,0.4-0.7,0.8-1c0.4-0.2,0.8-0.2,1.3-0.1c0.4,0.2,0.7,0.5,1,0.8c0.2,0.4,0.2,0.8,0.1,1.2
			L90.1,128c-0.2,0.4-0.5,0.7-0.8,1c-0.4,0.2-0.8,0.2-1.2,0.1c-0.5-0.1-0.8-0.4-1-0.8c-0.2-0.4-0.2-0.8-0.1-1.3L97.2,95z"/>
	</g>
</g>
<g>
	<circle class="st13" cx="152.2" cy="140.1" r="29.3"/>
	<g>
		<path class="st0" d="M174,154.8c0,1.4-1.2,2.6-2.6,2.6H133c-1.4,0-2.6-1.2-2.6-2.6v-29.4c0-1.4,1.2-2.6,2.6-2.6h38.4
			c1.4,0,2.6,1.2,2.6,2.6V154.8z"/>
		<path class="st3" d="M174,128.2v-2.9c0-1.4-1.2-2.6-2.6-2.6H133c-1.4,0-2.6,1.2-2.6,2.6v2.9H174z"/>
		<g>
			<rect x="135.3" y="131.5" class="st14" width="5" height="1.3"/>
			<rect x="140.7" y="131.5" class="st14" width="3.9" height="1.3"/>
			<rect x="145.2" y="131.5" class="st14" width="8.8" height="1.3"/>
			<rect x="135.3" y="129.7" class="st15" width="3.4" height="1.3"/>
			<rect x="140.7" y="133.6" class="st16" width="2.2" height="1.3"/>
			<rect x="143.6" y="133.6" class="st16" width="19.7" height="1.3"/>
			<rect x="164.1" y="133.6" class="st16" width="5.1" height="1.3"/>
			<rect x="145.2" y="135.6" class="st16" width="15.9" height="1.3"/>
			<rect x="161.7" y="135.6" class="st16" width="4.6" height="1.3"/>
			<rect x="140.7" y="137.7" class="st16" width="1.2" height="1.3"/>
			<rect x="142.8" y="137.7" class="st16" width="24.7" height="1.3"/>
			<rect x="168.2" y="137.7" class="st16" width="0.9" height="1.3"/>
			<rect x="135.3" y="139.7" class="st14" width="2.8" height="1.3"/>
			<rect x="138.8" y="139.7" class="st14" width="3.4" height="1.3"/>
			<rect x="143.2" y="139.7" class="st16" width="1.4" height="1.3"/>
			<polygon class="st16" points="157.2,141.8 146.9,141.8 146.9,143 146,143 146,141.8 140.7,141.8 140.7,143 157.2,143 			"/>
			<rect x="157.4" y="141.8" class="st16" width="1.7" height="1.3"/>
			<rect x="143.4" y="143.8" class="st16" width="0.9" height="1.3"/>
			<rect x="144.9" y="143.8" class="st16" width="3.5" height="1.3"/>
			<rect x="148.9" y="143.8" class="st16" width="14.6" height="1.3"/>
			<rect x="164.3" y="143.8" class="st16" width="3.5" height="1.3"/>
			<rect x="143.4" y="145.8" class="st16" width="3.7" height="1.3"/>
			<rect x="147.7" y="145.8" class="st16" width="12.7" height="1.3"/>
			<rect x="162" y="145.8" class="st16" width="7.2" height="1.3"/>
			<rect x="150" y="147.9" class="st16" width="13" height="1.3"/>
			<rect x="143.4" y="147.9" class="st16" width="5.7" height="1.3"/>
			<rect x="140.7" y="149.9" class="st16" width="15.4" height="1.3"/>
			<rect x="135.3" y="152" class="st14" width="1.9" height="1.3"/>
			<rect x="137.8" y="152" class="st16" width="23.2" height="1.3"/>
			<rect x="135.3" y="154" class="st15" width="3.4" height="1.3"/>
		</g>
	</g>
</g>
<path class="st17" d="M91.8,56c1-1.2,3.9-1.1,4.6,0"/>
<path class="st17" d="M101.6,62.1c-1.8,2-4.6,3.2-7.7,3.2c-3.4,0-6.3-1.5-8.1-3.7"/>
</svg>
